<svg width="19" height="19" fill="none" xmlns="http://www.w3.org/2000/svg"><path d="M17.079 2.126C15.499.653 12.945-.06 9.487.004 6 .069 3.668.651 2.15 1.835.683 2.98 0 4.655 0 7.108v2.503c0 2.895 1.632 6.077 4.75 6.56.36.055.7-.178.758-.52a.632.632 0 00-.546-.72c-2.365-.366-3.641-3.014-3.641-5.32V7.108c0-3.516 1.37-5.721 8.192-5.849 3.092-.058 5.324.536 6.641 1.763 1.026.957 1.525 2.293 1.525 4.086v2.503c0 3.79-1.789 5.461-6.378 5.953H8.047a.678.678 0 00-.467.184l-2.293 2.18a.606.606 0 000 .888.676.676 0 00.467.184.676.676 0 00.467-.184l2.1-1.996h3.017a.683.683 0 00.073-.004c2.626-.277 4.425-.927 5.66-2.045C18.368 13.595 19 11.907 19 9.611V7.108c0-2.118-.646-3.794-1.921-4.982z" fill="#fff"/></svg>